<svg xmlns="http://www.w3.org/2000/svg" xmlns:xlink="http://www.w3.org/1999/xlink" width="40" zoomAndPan="magnify" viewBox="0 0 30 32.249999" height="43" preserveAspectRatio="xMidYMid meet" version="1.0"><defs><clipPath id="9dcb3e676a"><path d="M 2.007812 2.765625 L 27.660156 2.765625 L 27.660156 28.421875 L 2.007812 28.421875 Z M 2.007812 2.765625 " clip-rule="nonzero"/></clipPath></defs><path fill="#108fcd" d="M 22.15625 19.644531 L 22.15625 12 L 17.179688 16.136719 Z M 22.15625 19.644531 " fill-opacity="1" fill-rule="nonzero"/><path fill="#108fcd" d="M 15.03125 16.679688 C 15.195312 16.679688 15.351562 16.625 15.480469 16.519531 L 21.457031 11.550781 L 8.605469 11.550781 L 14.582031 16.519531 C 14.710938 16.625 14.867188 16.679688 15.03125 16.679688 " fill-opacity="1" fill-rule="nonzero"/><path fill="#108fcd" d="M 15.984375 17.128906 C 15.71875 17.351562 15.378906 17.476562 15.03125 17.476562 C 14.683594 17.476562 14.34375 17.351562 14.078125 17.128906 L 13.511719 16.660156 L 8.761719 20.011719 L 21.300781 20.011719 L 16.550781 16.660156 L 15.984375 17.128906 " fill-opacity="1" fill-rule="nonzero"/><path fill="#108fcd" d="M 7.90625 12 L 7.90625 19.644531 L 12.882812 16.136719 Z M 7.90625 12 " fill-opacity="1" fill-rule="nonzero"/><g clip-path="url(#9dcb3e676a)"><path fill="#108fcd" d="M 14.988281 27.1875 C 8.667969 27.1875 3.546875 22.066406 3.546875 15.746094 C 3.546875 9.429688 8.667969 4.308594 14.988281 4.308594 C 21.308594 4.308594 26.429688 9.429688 26.429688 15.746094 C 26.429688 22.066406 21.308594 27.1875 14.988281 27.1875 Z M 24.167969 6.570312 C 22.976562 5.378906 21.589844 4.441406 20.042969 3.789062 C 18.441406 3.109375 16.738281 2.769531 14.988281 2.769531 C 13.238281 2.769531 11.535156 3.109375 9.9375 3.789062 C 8.390625 4.441406 7 5.378906 5.808594 6.570312 C 4.617188 7.761719 3.683594 9.148438 3.027344 10.695312 C 2.351562 12.296875 2.007812 13.996094 2.007812 15.746094 C 2.007812 17.5 2.351562 19.199219 3.027344 20.800781 C 3.683594 22.347656 4.617188 23.734375 5.808594 24.925781 C 7 26.117188 8.390625 27.054688 9.9375 27.707031 C 11.535156 28.386719 13.238281 28.726562 14.988281 28.726562 C 16.738281 28.726562 18.441406 28.386719 20.042969 27.707031 C 21.589844 27.054688 22.976562 26.117188 24.167969 24.925781 C 25.359375 23.734375 26.296875 22.347656 26.949219 20.800781 C 27.625 19.199219 27.96875 17.5 27.96875 15.746094 C 27.96875 13.996094 27.625 12.296875 26.949219 10.695312 C 26.296875 9.148438 25.359375 7.761719 24.167969 6.570312 " fill-opacity="1" fill-rule="nonzero"/></g></svg>