<svg xmlns="http://www.w3.org/2000/svg" xmlns:xlink="http://www.w3.org/1999/xlink" width="40" zoomAndPan="magnify" viewBox="0 0 30 32.249999" height="43" preserveAspectRatio="xMidYMid meet" version="1.0"><defs><clipPath id="77502a9755"><path d="M 3 8.160156 L 28 8.160156 L 28 23.550781 L 3 23.550781 Z M 3 8.160156 " clip-rule="nonzero"/></clipPath><clipPath id="5cb2503f5a"><path d="M 1 13 L 28.746094 13 L 28.746094 18 L 1 18 Z M 1 13 " clip-rule="nonzero"/></clipPath><clipPath id="4058a36c65"><path d="M 23 8.160156 L 28 8.160156 L 28 11 L 23 11 Z M 23 8.160156 " clip-rule="nonzero"/></clipPath><clipPath id="41b349e129"><path d="M 0.894531 11 L 14 11 L 14 22 L 0.894531 22 Z M 0.894531 11 " clip-rule="nonzero"/></clipPath><clipPath id="b9de8067c4"><path d="M 15 8.160156 L 28 8.160156 L 28 19 L 15 19 Z M 15 8.160156 " clip-rule="nonzero"/></clipPath></defs><g clip-path="url(#77502a9755)"><path fill="#044d72" d="M 8.664062 16.011719 L 26.921875 8.515625 L 27.210938 9.230469 L 9.375 16.441406 C 8.375 16.765625 7.550781 17.492188 7.109375 18.449219 L 5.261719 22.421875 C 5.113281 22.742188 4.824219 22.976562 4.480469 23.054688 L 3.351562 23.308594 C 3.167969 23.351562 3.023438 23.144531 3.128906 22.984375 L 6.679688 17.539062 C 7.148438 16.820312 7.847656 16.285156 8.664062 16.011719 Z M 8.664062 16.011719 " fill-opacity="1" fill-rule="nonzero"/></g><g clip-path="url(#5cb2503f5a)"><path fill="#044d72" d="M 20.941406 13.238281 L 1.234375 14.320312 L 1.277344 15.09375 L 20.480469 13.929688 C 21.523438 13.792969 22.578125 14.09375 23.390625 14.765625 L 26.769531 17.558594 C 27.042969 17.785156 27.402344 17.871094 27.746094 17.792969 L 28.871094 17.539062 C 29.058594 17.496094 29.101562 17.25 28.9375 17.148438 L 23.386719 13.761719 C 22.652344 13.316406 21.792969 13.128906 20.941406 13.238281 Z M 20.941406 13.238281 " fill-opacity="1" fill-rule="nonzero"/></g><path fill="#368cc1" d="M 6.679688 17.539062 L 4.9375 20.210938 C 5.230469 20.46875 5.582031 20.6875 5.996094 20.84375 L 7.109375 18.449219 C 7.550781 17.492188 8.375 16.765625 9.375 16.441406 L 12.757812 15.074219 C 12.703125 14.847656 12.628906 14.628906 12.542969 14.417969 L 8.664062 16.011719 C 7.847656 16.285156 7.148438 16.820312 6.679688 17.539062 Z M 6.679688 17.539062 " fill-opacity="1" fill-rule="nonzero"/><path fill="#368cc1" d="M 16.75 13.460938 L 24.90625 10.160156 C 24.636719 9.953125 24.328125 9.808594 23.996094 9.714844 L 16.773438 12.683594 C 16.75 12.882812 16.738281 13.101562 16.742188 13.339844 C 16.746094 13.378906 16.75 13.421875 16.75 13.460938 Z M 16.75 13.460938 " fill-opacity="1" fill-rule="nonzero"/><path fill="#368cc1" d="M 12.496094 14.300781 C 12.398438 14.082031 12.296875 13.890625 12.183594 13.71875 L 4.386719 14.148438 C 4.128906 14.375 3.910156 14.636719 3.757812 14.945312 L 12.539062 14.410156 C 12.527344 14.375 12.511719 14.335938 12.496094 14.300781 Z M 12.496094 14.300781 " fill-opacity="1" fill-rule="nonzero"/><path fill="#368cc1" d="M 20.941406 13.238281 L 16.75 13.46875 C 16.765625 13.691406 16.792969 13.921875 16.839844 14.152344 L 20.480469 13.929688 C 21.527344 13.792969 22.582031 14.09375 23.390625 14.765625 L 25.429688 16.449219 C 25.734375 16.128906 25.957031 15.785156 26.109375 15.425781 L 23.386719 13.761719 C 22.652344 13.316406 21.792969 13.128906 20.941406 13.238281 Z M 20.941406 13.238281 " fill-opacity="1" fill-rule="nonzero"/><path fill="#421617" d="M 12.542969 14.417969 L 12.566406 14.410156 L 12.539062 14.410156 C 12.542969 14.414062 12.542969 14.417969 12.542969 14.417969 Z M 12.542969 14.417969 " fill-opacity="1" fill-rule="nonzero"/><path fill="#421617" d="M 4.9375 20.210938 L 4.539062 20.824219 C 4.65625 20.90625 4.78125 20.988281 4.914062 21.058594 C 5.167969 21.195312 5.441406 21.316406 5.730469 21.414062 L 5.992188 20.84375 C 5.582031 20.6875 5.230469 20.46875 4.9375 20.210938 Z M 4.9375 20.210938 " fill-opacity="1" fill-rule="nonzero"/><path fill="#421617" d="M 12.566406 14.410156 L 12.542969 14.417969 C 12.628906 14.628906 12.703125 14.847656 12.757812 15.074219 L 13.699219 14.695312 C 13.683594 14.578125 13.671875 14.460938 13.652344 14.34375 Z M 12.566406 14.410156 " fill-opacity="1" fill-rule="nonzero"/><path fill="#421617" d="M 12.496094 14.300781 C 12.511719 14.335938 12.527344 14.375 12.542969 14.410156 L 12.566406 14.410156 L 13.597656 13.988281 C 13.574219 13.875 13.554688 13.761719 13.53125 13.644531 L 12.183594 13.71875 C 12.296875 13.890625 12.398438 14.082031 12.496094 14.300781 Z M 12.496094 14.300781 " fill-opacity="1" fill-rule="nonzero"/><path fill="#421617" d="M 4.386719 14.148438 L 1.234375 14.320312 L 1.277344 15.09375 L 3.757812 14.941406 C 3.914062 14.636719 4.128906 14.375 4.386719 14.148438 Z M 4.386719 14.148438 " fill-opacity="1" fill-rule="nonzero"/><path fill="#421617" d="M 13.652344 14.34375 C 13.636719 14.226562 13.617188 14.105469 13.597656 13.988281 L 12.566406 14.410156 Z M 13.652344 14.34375 " fill-opacity="1" fill-rule="nonzero"/><path fill="#421617" d="M 16.726562 13.46875 L 16.75 13.46875 C 16.75 13.464844 16.75 13.464844 16.75 13.460938 Z M 16.726562 13.46875 " fill-opacity="1" fill-rule="nonzero"/><g clip-path="url(#4058a36c65)"><path fill="#421617" d="M 24.90625 10.164062 L 27.210938 9.230469 L 26.921875 8.515625 L 23.996094 9.714844 C 24.328125 9.808594 24.636719 9.953125 24.90625 10.164062 Z M 24.90625 10.164062 " fill-opacity="1" fill-rule="nonzero"/></g><path fill="#421617" d="M 16.726562 13.46875 L 16.75 13.460938 C 16.75 13.421875 16.746094 13.378906 16.742188 13.339844 C 16.738281 13.101562 16.75 12.882812 16.773438 12.683594 L 15.527344 13.191406 C 15.558594 13.308594 15.585938 13.417969 15.617188 13.53125 Z M 16.726562 13.46875 " fill-opacity="1" fill-rule="nonzero"/><path fill="#421617" d="M 25.429688 16.449219 L 25.910156 16.851562 C 26.128906 16.636719 26.324219 16.414062 26.496094 16.179688 C 26.585938 16.058594 26.664062 15.933594 26.734375 15.804688 L 26.109375 15.425781 C 25.957031 15.785156 25.734375 16.128906 25.429688 16.449219 Z M 25.429688 16.449219 " fill-opacity="1" fill-rule="nonzero"/><path fill="#421617" d="M 16.75 13.46875 L 16.726562 13.46875 L 15.71875 13.878906 C 15.753906 13.992188 15.789062 14.101562 15.828125 14.214844 L 16.839844 14.152344 C 16.792969 13.921875 16.765625 13.691406 16.75 13.46875 Z M 16.75 13.46875 " fill-opacity="1" fill-rule="nonzero"/><path fill="#421617" d="M 15.71875 13.878906 L 16.726562 13.46875 L 15.617188 13.53125 C 15.648438 13.648438 15.683594 13.765625 15.71875 13.878906 Z M 15.71875 13.878906 " fill-opacity="1" fill-rule="nonzero"/><g clip-path="url(#41b349e129)"><path fill="#108fcd" d="M 13.316406 12.800781 C 13.316406 12.800781 11.519531 11.238281 9.328125 11.378906 C 6.824219 11.539062 3.765625 12.726562 1.285156 13.933594 C 1.027344 14.058594 0.894531 14.347656 0.960938 14.625 L 1.058594 15.011719 C 1.136719 15.324219 1.445312 15.523438 1.757812 15.460938 L 2.132812 15.390625 C 2.132812 15.390625 2.160156 19.570312 4.914062 21.058594 C 7.664062 22.546875 12.535156 21.78125 13.597656 17.414062 C 13.859375 16.335938 13.84375 14.578125 13.316406 12.800781 Z M 8.5 21.105469 C 4.222656 21.519531 3.449219 18.363281 3.523438 15.871094 C 3.585938 13.941406 5.933594 13.179688 7.054688 12.960938 C 9.542969 12.476562 11.433594 11.910156 12.496094 14.300781 C 13.554688 16.691406 12.777344 20.6875 8.5 21.105469 Z M 8.5 21.105469 " fill-opacity="1" fill-rule="nonzero"/></g><g clip-path="url(#b9de8067c4)"><path fill="#108fcd" d="M 17.089844 16.625 C 19.925781 20.109375 24.652344 18.707031 26.496094 16.179688 C 28.339844 13.652344 26.566406 9.863281 26.566406 9.863281 L 26.933594 9.769531 C 27.246094 9.6875 27.441406 9.378906 27.375 9.0625 L 27.296875 8.671875 C 27.238281 8.390625 26.992188 8.1875 26.707031 8.1875 C 23.945312 8.164062 20.675781 8.410156 18.347656 9.339844 C 16.304688 10.152344 15.355469 12.339844 15.355469 12.339844 C 15.648438 14.167969 16.386719 15.761719 17.089844 16.625 Z M 16.742188 13.339844 C 16.671875 10.726562 18.621094 10.425781 21.078125 9.792969 C 22.1875 9.507812 24.632812 9.183594 25.515625 10.898438 C 26.660156 13.117188 27.320312 16.300781 23.277344 17.761719 C 19.238281 19.226562 16.816406 15.953125 16.742188 13.339844 Z M 16.742188 13.339844 " fill-opacity="1" fill-rule="nonzero"/></g><path fill="#108fcd" d="M 16.484375 11.8125 C 16.359375 11.71875 16.128906 11.644531 15.859375 11.585938 C 14.679688 11.339844 13.433594 11.617188 12.492188 12.371094 C 12.296875 12.527344 12.140625 12.679688 12.074219 12.808594 C 11.976562 13.003906 11.96875 13.230469 12.054688 13.433594 C 12.140625 13.632812 12.308594 13.78125 12.511719 13.847656 L 12.523438 13.847656 C 12.644531 13.886719 12.777344 13.890625 12.898438 13.863281 C 13.113281 13.816406 13.296875 13.675781 13.398438 13.476562 C 13.507812 13.269531 13.867188 12.988281 14.402344 12.855469 C 14.941406 12.746094 15.386719 12.84375 15.574219 12.984375 C 15.753906 13.117188 15.976562 13.167969 16.191406 13.121094 C 16.316406 13.089844 16.433594 13.03125 16.53125 12.9375 C 16.691406 12.792969 16.777344 12.582031 16.769531 12.367188 C 16.757812 12.148438 16.65625 11.949219 16.484375 11.8125 Z M 16.484375 11.8125 " fill-opacity="1" fill-rule="nonzero"/><path fill="#044d72" d="M 15.71875 13.878906 C 15.683594 13.761719 15.648438 13.648438 15.617188 13.53125 L 14.566406 13.589844 L 13.53125 13.644531 C 13.554688 13.757812 13.574219 13.875 13.597656 13.988281 C 13.617188 14.105469 13.636719 14.226562 13.652344 14.34375 L 14.722656 14.28125 L 15.828125 14.210938 C 15.789062 14.101562 15.753906 13.992188 15.71875 13.878906 Z M 15.71875 13.878906 " fill-opacity="1" fill-rule="nonzero"/></svg>