<svg xmlns="http://www.w3.org/2000/svg" xmlns:xlink="http://www.w3.org/1999/xlink" width="40" zoomAndPan="magnify" viewBox="0 0 30 32.249999" height="43" preserveAspectRatio="xMidYMid meet" version="1.0"><defs><clipPath id="169c010286"><path d="M 2 3 L 28 3 L 28 28.585938 L 2 28.585938 Z M 2 3 " clip-rule="nonzero"/></clipPath></defs><g clip-path="url(#169c010286)"><path fill="#108fcd" d="M 27.640625 13.128906 L 17.1875 3.894531 C 16.082031 2.921875 14.40625 2.921875 13.300781 3.894531 L 2.84375 13.128906 C 1.996094 13.863281 2.84375 15.457031 4.144531 14.597656 L 14.597656 5.363281 C 14.964844 5.039062 15.523438 5.039062 15.890625 5.363281 L 24.054688 12.574219 L 24.054688 25.613281 C 24.054688 26.148438 23.613281 26.59375 23.078125 26.59375 L 20.140625 26.59375 L 20.140625 15.820312 C 20.140625 15.28125 19.695312 14.84375 19.160156 14.84375 L 11.328125 14.84375 C 10.792969 14.84375 10.347656 15.28125 10.347656 15.820312 L 10.347656 23.65625 C 10.347656 24.191406 10.792969 24.632812 11.328125 24.632812 C 11.863281 24.632812 12.304688 24.191406 12.304688 23.65625 L 12.304688 16.800781 L 18.179688 16.800781 L 18.179688 26.59375 L 7.410156 26.59375 C 6.871094 26.59375 6.429688 26.148438 6.429688 25.613281 L 6.429688 17.195312 C 6.429688 16.65625 5.992188 16.214844 5.453125 16.214844 C 4.914062 16.214844 4.472656 16.65625 4.472656 17.195312 L 4.472656 25.613281 C 4.472656 26.394531 4.777344 27.140625 5.332031 27.691406 C 5.882812 28.238281 6.632812 28.546875 7.410156 28.550781 L 23.078125 28.550781 C 23.851562 28.546875 24.601562 28.238281 25.152344 27.691406 C 25.707031 27.140625 26.015625 26.394531 26.015625 25.613281 L 26.015625 14.304688 L 26.347656 14.597656 C 26.523438 14.753906 26.753906 14.84375 26.992188 14.84375 C 27.527344 14.84375 27.972656 14.398438 27.972656 13.863281 C 27.972656 13.585938 27.851562 13.316406 27.640625 13.128906 " fill-opacity="1" fill-rule="nonzero"/></g></svg>