<svg xmlns="http://www.w3.org/2000/svg" xmlns:xlink="http://www.w3.org/1999/xlink" width="40" zoomAndPan="magnify" viewBox="0 0 30 32.249999" height="43" preserveAspectRatio="xMidYMid meet" version="1.0"><defs><clipPath id="5e56e421b3"><path d="M 3.824219 4.582031 L 26.160156 4.582031 L 26.160156 26.9375 L 3.824219 26.9375 Z M 3.824219 4.582031 " clip-rule="nonzero"/></clipPath></defs><g clip-path="url(#5e56e421b3)"><path fill="#108fcd" d="M 14.921875 11.507812 C 17.246094 11.464844 19.164062 13.3125 19.207031 15.636719 C 19.207031 15.679688 19.207031 15.71875 19.207031 15.761719 C 19.234375 18.085938 17.371094 19.988281 15.046875 20.015625 C 12.722656 20.042969 10.816406 18.179688 10.792969 15.855469 C 10.792969 15.824219 10.792969 15.792969 10.792969 15.761719 C 10.765625 13.449219 12.609375 11.550781 14.921875 11.507812 Z M 15.375 4.589844 C 14.746094 4.570312 14.117188 4.601562 13.496094 4.683594 C 13.273438 4.714844 13.09375 4.867188 13.027344 5.078125 L 12.410156 7.09375 C 12.355469 7.265625 12.226562 7.402344 12.058594 7.460938 C 11.765625 7.566406 11.480469 7.683594 11.199219 7.816406 C 11.035156 7.898438 10.847656 7.894531 10.6875 7.808594 L 8.824219 6.820312 C 8.628906 6.714844 8.390625 6.734375 8.214844 6.871094 C 7.417969 7.476562 6.707031 8.1875 6.101562 8.984375 C 5.964844 9.160156 5.945312 9.398438 6.050781 9.59375 L 7.039062 11.457031 C 7.125 11.613281 7.132812 11.804688 7.058594 11.96875 C 6.925781 12.246094 6.804688 12.535156 6.703125 12.824219 C 6.644531 12.996094 6.503906 13.125 6.332031 13.179688 L 4.320312 13.800781 C 4.105469 13.863281 3.953125 14.046875 3.921875 14.265625 C 3.789062 15.257812 3.789062 16.261719 3.921875 17.257812 C 3.953125 17.476562 4.105469 17.65625 4.320312 17.722656 L 6.332031 18.34375 C 6.503906 18.394531 6.644531 18.523438 6.703125 18.695312 C 6.804688 18.988281 6.925781 19.273438 7.058594 19.554688 C 7.132812 19.714844 7.125 19.90625 7.039062 20.0625 L 6.050781 21.925781 C 5.945312 22.121094 5.964844 22.359375 6.101562 22.535156 C 6.707031 23.332031 7.417969 24.042969 8.214844 24.648438 C 8.390625 24.785156 8.628906 24.800781 8.824219 24.703125 L 10.6875 23.714844 C 10.847656 23.628906 11.035156 23.625 11.199219 23.699219 C 11.480469 23.835938 11.765625 23.953125 12.058594 24.054688 C 12.226562 24.117188 12.355469 24.253906 12.410156 24.421875 L 13.027344 26.441406 C 13.09375 26.652344 13.273438 26.808594 13.496094 26.835938 C 14.488281 26.96875 15.496094 26.96875 16.488281 26.835938 C 16.703125 26.808594 16.886719 26.652344 16.953125 26.441406 L 17.570312 24.421875 C 17.625 24.253906 17.757812 24.117188 17.925781 24.054688 C 18.21875 23.953125 18.503906 23.835938 18.78125 23.699219 C 18.945312 23.625 19.132812 23.628906 19.292969 23.714844 L 21.15625 24.703125 C 21.351562 24.800781 21.589844 24.785156 21.765625 24.648438 C 22.5625 24.042969 23.273438 23.332031 23.882812 22.535156 C 24.015625 22.359375 24.035156 22.121094 23.933594 21.925781 L 22.945312 20.0625 C 22.855469 19.90625 22.851562 19.714844 22.925781 19.554688 C 23.058594 19.273438 23.175781 18.988281 23.28125 18.695312 C 23.339844 18.523438 23.476562 18.394531 23.648438 18.34375 L 25.664062 17.722656 C 25.875 17.65625 26.03125 17.476562 26.058594 17.257812 C 26.195312 16.261719 26.195312 15.257812 26.058594 14.265625 C 26.03125 14.046875 25.875 13.863281 25.664062 13.800781 L 23.648438 13.179688 C 23.476562 13.125 23.339844 12.996094 23.28125 12.824219 C 23.175781 12.535156 23.058594 12.246094 22.925781 11.96875 C 22.851562 11.804688 22.855469 11.613281 22.945312 11.457031 L 23.933594 9.59375 C 24.035156 9.398438 24.015625 9.160156 23.882812 8.984375 C 23.273438 8.1875 22.5625 7.476562 21.765625 6.871094 C 21.589844 6.734375 21.351562 6.714844 21.15625 6.820312 L 19.292969 7.808594 C 19.132812 7.894531 18.945312 7.898438 18.78125 7.820312 C 18.503906 7.6875 18.21875 7.566406 17.925781 7.464844 C 17.757812 7.40625 17.625 7.269531 17.570312 7.09375 L 16.953125 5.082031 C 16.886719 4.867188 16.703125 4.714844 16.488281 4.683594 C 16.117188 4.632812 15.746094 4.601562 15.375 4.589844 " fill-opacity="1" fill-rule="nonzero"/></g></svg>