<svg xmlns="http://www.w3.org/2000/svg" xmlns:xlink="http://www.w3.org/1999/xlink" width="40" zoomAndPan="magnify" viewBox="0 0 30 32.249999" height="43" preserveAspectRatio="xMidYMid meet" version="1.0"><defs><clipPath id="edd040f0b6"><path d="M 2.539062 3.296875 L 27.460938 3.296875 L 27.460938 28.21875 L 2.539062 28.21875 Z M 2.539062 3.296875 " clip-rule="nonzero"/></clipPath></defs><g clip-path="url(#edd040f0b6)"><path fill="#108fcd" d="M 27.015625 10.578125 L 25.386719 5.691406 C 24.910156 4.257812 23.574219 3.300781 22.066406 3.300781 L 7.933594 3.300781 C 6.425781 3.300781 5.089844 4.261719 4.613281 5.691406 L 2.984375 10.578125 C 2.546875 11.894531 2.933594 13.316406 3.875 14.210938 L 3.875 24.597656 C 3.875 26.523438 5.441406 28.09375 7.371094 28.09375 L 22.628906 28.09375 C 24.558594 28.09375 26.125 26.523438 26.125 24.597656 L 26.125 14.210938 C 27.066406 13.316406 27.453125 11.894531 27.015625 10.578125 Z M 12.140625 26.183594 L 12.140625 22.050781 C 12.140625 21.175781 12.851562 20.464844 13.730469 20.464844 L 16.269531 20.464844 C 17.148438 20.464844 17.859375 21.175781 17.859375 22.050781 L 17.859375 26.183594 Z M 24.21875 24.59375 C 24.21875 25.472656 23.503906 26.183594 22.628906 26.183594 L 19.769531 26.183594 L 19.769531 22.050781 C 19.769531 20.125 18.199219 18.554688 16.269531 18.554688 L 13.730469 18.554688 C 11.800781 18.554688 10.230469 20.125 10.230469 22.050781 L 10.230469 26.183594 L 7.371094 26.183594 C 6.496094 26.183594 5.78125 25.472656 5.78125 24.59375 L 5.78125 15.164062 C 7.335938 15.542969 9.15625 15.351562 10.425781 14.582031 C 10.894531 14.300781 11.480469 14.300781 11.949219 14.582031 C 13.648438 15.605469 16.351562 15.605469 18.050781 14.582031 C 18.519531 14.300781 19.105469 14.300781 19.574219 14.582031 C 20.425781 15.09375 21.507812 15.378906 22.628906 15.378906 C 23.179688 15.378906 23.714844 15.304688 24.21875 15.175781 Z M 24.527344 13.046875 C 23.402344 13.628906 21.609375 13.585938 20.5625 12.949219 C 20.023438 12.625 19.417969 12.464844 18.8125 12.464844 C 18.207031 12.464844 17.605469 12.625 17.066406 12.949219 C 15.953125 13.621094 14.046875 13.621094 12.933594 12.949219 C 11.855469 12.300781 10.515625 12.300781 9.4375 12.949219 C 8.390625 13.582031 6.597656 13.625 5.472656 13.046875 C 4.839844 12.71875 4.546875 11.917969 4.792969 11.179688 L 6.421875 6.292969 C 6.640625 5.640625 7.246094 5.203125 7.929688 5.203125 L 22.066406 5.203125 C 22.75 5.203125 23.355469 5.640625 23.574219 6.292969 L 25.203125 11.179688 C 25.449219 11.917969 25.15625 12.71875 24.523438 13.046875 Z M 24.527344 13.046875 " fill-opacity="1" fill-rule="nonzero"/></g></svg>