<svg xmlns="http://www.w3.org/2000/svg" xmlns:xlink="http://www.w3.org/1999/xlink" width="100" zoomAndPan="magnify" viewBox="0 0 75 30.000001" height="40" preserveAspectRatio="xMidYMid meet" version="1.0"><defs><g/><clipPath id="b0abdc5e3c"><path d="M 5.375 1.691406 L 19.890625 1.691406 L 19.890625 14.03125 L 5.375 14.03125 Z M 5.375 1.691406 " clip-rule="nonzero"/></clipPath><clipPath id="9b4f402c41"><path d="M 5.375 14.167969 L 19.890625 14.167969 L 19.890625 26.503906 L 5.375 26.503906 Z M 5.375 14.167969 " clip-rule="nonzero"/></clipPath></defs><g fill="#108fcd" fill-opacity="1"><g transform="translate(17.986861, 13.372654)"><g><path d="M 0.859375 -11.140625 L 1.921875 -11.140625 L 5.09375 -3.734375 L 5.09375 -11.140625 L 6.375 -11.140625 L 6.375 0 L 5.390625 0 L 2.1875 -7.609375 L 2.1875 0 L 0.859375 0 Z M 0.859375 -11.140625 "/></g></g></g><g fill="#108fcd" fill-opacity="1"><g transform="translate(27.196322, 13.372654)"><g><path d="M 0.859375 -11.140625 L 3.28125 -11.140625 C 4.488281 -11.140625 5.34375 -10.863281 5.84375 -10.3125 C 6.34375 -9.757812 6.59375 -8.898438 6.59375 -7.734375 L 6.59375 -3.640625 C 6.59375 -2.410156 6.34375 -1.492188 5.84375 -0.890625 C 5.351562 -0.296875 4.539062 0 3.40625 0 L 0.859375 0 Z M 3.296875 -1.109375 C 3.835938 -1.109375 4.226562 -1.210938 4.46875 -1.421875 C 4.71875 -1.640625 4.867188 -1.925781 4.921875 -2.28125 C 4.984375 -2.644531 5.015625 -3.195312 5.015625 -3.9375 L 5.015625 -7.546875 C 5.015625 -8.179688 4.972656 -8.664062 4.890625 -9 C 4.816406 -9.332031 4.65625 -9.578125 4.40625 -9.734375 C 4.164062 -9.898438 3.785156 -9.984375 3.265625 -9.984375 L 2.421875 -9.984375 L 2.421875 -1.109375 Z M 3.296875 -1.109375 "/></g></g></g><g fill="#108fcd" fill-opacity="1"><g transform="translate(36.392028, 13.372654)"><g><path d="M 0.859375 -11.140625 L 5.1875 -11.140625 L 5.1875 -9.984375 L 2.421875 -9.984375 L 2.421875 -6.296875 L 4.65625 -6.296875 L 4.65625 -5.203125 L 2.421875 -5.203125 L 2.421875 -1.109375 L 5.21875 -1.109375 L 5.21875 0 L 0.859375 0 Z M 0.859375 -11.140625 "/></g></g></g><g fill="#108fcd" fill-opacity="1"><g transform="translate(43.938334, 13.372654)"><g><path d="M 3.5 0.125 C 2.5625 0.125 1.847656 -0.160156 1.359375 -0.734375 C 0.867188 -1.316406 0.59375 -2.113281 0.53125 -3.125 L 1.90625 -3.5 C 1.957031 -2.78125 2.097656 -2.195312 2.328125 -1.75 C 2.566406 -1.3125 2.957031 -1.09375 3.5 -1.09375 C 3.894531 -1.09375 4.195312 -1.207031 4.40625 -1.4375 C 4.613281 -1.664062 4.71875 -1.988281 4.71875 -2.40625 C 4.71875 -2.863281 4.617188 -3.242188 4.421875 -3.546875 C 4.234375 -3.847656 3.925781 -4.179688 3.5 -4.546875 L 1.640625 -6.203125 C 1.265625 -6.535156 0.988281 -6.890625 0.8125 -7.265625 C 0.644531 -7.648438 0.5625 -8.113281 0.5625 -8.65625 C 0.5625 -9.476562 0.796875 -10.113281 1.265625 -10.5625 C 1.734375 -11.007812 2.367188 -11.234375 3.171875 -11.234375 C 4.054688 -11.234375 4.722656 -11 5.171875 -10.53125 C 5.617188 -10.0625 5.890625 -9.335938 5.984375 -8.359375 L 4.65625 -8 C 4.613281 -8.65625 4.488281 -9.15625 4.28125 -9.5 C 4.070312 -9.851562 3.703125 -10.03125 3.171875 -10.03125 C 2.773438 -10.03125 2.472656 -9.925781 2.265625 -9.71875 C 2.054688 -9.519531 1.953125 -9.21875 1.953125 -8.8125 C 1.953125 -8.476562 2.003906 -8.195312 2.109375 -7.96875 C 2.222656 -7.75 2.414062 -7.523438 2.6875 -7.296875 L 4.5625 -5.65625 C 5.050781 -5.21875 5.4375 -4.75 5.71875 -4.25 C 6.007812 -3.75 6.15625 -3.175781 6.15625 -2.53125 C 6.15625 -1.71875 5.90625 -1.070312 5.40625 -0.59375 C 4.914062 -0.113281 4.28125 0.125 3.5 0.125 Z M 3.5 0.125 "/></g></g></g><g clip-path="url(#b0abdc5e3c)"><path fill="#108fcd" d="M 12.710938 22.089844 L 8.304688 14.441406 L 20.050781 14.441406 L 12.710938 1.699219 L 5.375 14.441406 L 12.710938 27.167969 L 18.585938 16.980469 L 15.648438 16.988281 Z M 12.710938 6.792969 L 15.648438 11.894531 L 13.488281 9.492188 L 12.84375 10.191406 L 13.234375 10.980469 L 11.925781 9.953125 L 9.777344 11.894531 Z M 12.710938 6.792969 " fill-opacity="1" fill-rule="nonzero"/></g><g fill="#0a1013" fill-opacity="1"><g transform="translate(17.90226, 25.57587)"><g><path d="M 0.90625 -10.6875 L 2.375 -10.6875 L 2.375 0 L 0.90625 0 Z M 0.90625 -10.6875 "/></g></g></g><g fill="#0a1013" fill-opacity="1"><g transform="translate(22.396254, 25.57587)"><g><path d="M 3.34375 0.125 C 2.445312 0.125 1.765625 -0.148438 1.296875 -0.703125 C 0.828125 -1.265625 0.566406 -2.03125 0.515625 -3 L 1.828125 -3.34375 C 1.878906 -2.664062 2.015625 -2.113281 2.234375 -1.6875 C 2.460938 -1.269531 2.832031 -1.0625 3.34375 -1.0625 C 3.738281 -1.0625 4.03125 -1.164062 4.21875 -1.375 C 4.414062 -1.59375 4.515625 -1.90625 4.515625 -2.3125 C 4.515625 -2.75 4.421875 -3.113281 4.234375 -3.40625 C 4.054688 -3.695312 3.765625 -4.015625 3.359375 -4.359375 L 1.5625 -5.953125 C 1.207031 -6.265625 0.945312 -6.601562 0.78125 -6.96875 C 0.625 -7.332031 0.546875 -7.78125 0.546875 -8.3125 C 0.546875 -9.09375 0.769531 -9.695312 1.21875 -10.125 C 1.664062 -10.5625 2.273438 -10.78125 3.046875 -10.78125 C 3.890625 -10.78125 4.523438 -10.550781 4.953125 -10.09375 C 5.390625 -9.644531 5.648438 -8.953125 5.734375 -8.015625 L 4.46875 -7.671875 C 4.425781 -8.296875 4.304688 -8.773438 4.109375 -9.109375 C 3.910156 -9.453125 3.554688 -9.625 3.046875 -9.625 C 2.671875 -9.625 2.378906 -9.523438 2.171875 -9.328125 C 1.972656 -9.128906 1.875 -8.835938 1.875 -8.453125 C 1.875 -8.140625 1.925781 -7.875 2.03125 -7.65625 C 2.132812 -7.4375 2.316406 -7.21875 2.578125 -7 L 4.375 -5.421875 C 4.84375 -5.003906 5.210938 -4.550781 5.484375 -4.0625 C 5.765625 -3.582031 5.90625 -3.035156 5.90625 -2.421875 C 5.90625 -1.640625 5.664062 -1.019531 5.1875 -0.5625 C 4.71875 -0.101562 4.101562 0.125 3.34375 0.125 Z M 3.34375 0.125 "/></g></g></g><g fill="#0a1013" fill-opacity="1"><g transform="translate(29.855283, 25.57587)"><g><path d="M 0.90625 -10.6875 L 2.375 -10.6875 L 2.375 0 L 0.90625 0 Z M 0.90625 -10.6875 "/></g></g></g><g fill="#0a1013" fill-opacity="1"><g transform="translate(34.349277, 25.57587)"><g><path d="M 3.5625 0.125 C 2.507812 0.125 1.757812 -0.171875 1.3125 -0.765625 C 0.863281 -1.359375 0.640625 -2.21875 0.640625 -3.34375 L 0.640625 -7.390625 C 0.640625 -8.503906 0.863281 -9.347656 1.3125 -9.921875 C 1.769531 -10.492188 2.519531 -10.78125 3.5625 -10.78125 C 4.59375 -10.78125 5.332031 -10.488281 5.78125 -9.90625 C 6.238281 -9.332031 6.46875 -8.492188 6.46875 -7.390625 L 6.46875 -3.34375 C 6.46875 -2.226562 6.238281 -1.367188 5.78125 -0.765625 C 5.332031 -0.171875 4.59375 0.125 3.5625 0.125 Z M 3.5625 -1.0625 C 4.113281 -1.0625 4.484375 -1.222656 4.671875 -1.546875 C 4.867188 -1.867188 4.96875 -2.359375 4.96875 -3.015625 L 4.96875 -7.703125 C 4.96875 -8.347656 4.867188 -8.828125 4.671875 -9.140625 C 4.484375 -9.453125 4.113281 -9.609375 3.5625 -9.609375 C 3 -9.609375 2.617188 -9.453125 2.421875 -9.140625 C 2.234375 -8.828125 2.140625 -8.347656 2.140625 -7.703125 L 2.140625 -3.015625 C 2.140625 -2.359375 2.234375 -1.867188 2.421875 -1.546875 C 2.617188 -1.222656 3 -1.0625 3.5625 -1.0625 Z M 3.5625 -1.0625 "/></g></g></g><g fill="#0a1013" fill-opacity="1"><g transform="translate(42.678055, 25.57587)"><g><path d="M 0.828125 -10.6875 L 1.84375 -10.6875 L 4.875 -3.59375 L 4.875 -10.6875 L 6.125 -10.6875 L 6.125 0 L 5.171875 0 L 2.09375 -7.296875 L 2.09375 0 L 0.828125 0 Z M 0.828125 -10.6875 "/></g></g></g><g clip-path="url(#9b4f402c41)"><path fill="#0a1013" d="M 12.710938 21.730469 L 8.304688 14.082031 L 20.050781 14.082031 L 12.710938 1.339844 L 5.375 14.082031 L 12.710938 26.808594 L 18.585938 16.621094 L 15.648438 16.628906 Z M 12.710938 6.433594 L 15.648438 11.535156 L 13.488281 9.132812 L 12.84375 9.832031 L 13.234375 10.621094 L 11.925781 9.597656 L 9.777344 11.535156 Z M 12.710938 6.433594 " fill-opacity="1" fill-rule="nonzero"/></g></svg>