<svg xmlns="http://www.w3.org/2000/svg" xmlns:xlink="http://www.w3.org/1999/xlink" width="100" zoomAndPan="magnify" viewBox="0 0 75 44.999999" height="60" preserveAspectRatio="xMidYMid meet" version="1.0"><defs><g/><clipPath id="18bc5c06cf"><path d="M 10.035156 3.390625 L 64.785156 3.390625 L 64.785156 25.890625 L 10.035156 25.890625 Z M 10.035156 3.390625 " clip-rule="nonzero"/></clipPath></defs><g clip-path="url(#18bc5c06cf)"><path fill="#000000" d="M 11.007812 22.464844 C 11.007812 22.464844 11.226562 22.101562 12.066406 21.425781 C 12.90625 20.75 14.804688 19.144531 15.421875 18.597656 C 16.042969 18.066406 16.683594 17.316406 16.847656 17.136719 C 16.992188 16.933594 17.285156 16.734375 18.070312 16.734375 C 18.855469 16.734375 20.625 16.878906 20.972656 16.734375 C 21.320312 16.605469 22.46875 15.710938 22.796875 15.382812 C 23.125 15.054688 24.421875 13.867188 24.476562 13.8125 C 24.550781 13.757812 25.003906 13.339844 25.097656 13.210938 C 25.1875 13.082031 25.917969 12.390625 26.210938 12.152344 C 26.5 11.914062 27.050781 11.296875 27.050781 11.296875 C 27.050781 11.296875 27.761719 10.820312 27.945312 10.65625 C 28.109375 10.492188 28.398438 10.621094 28.691406 10.800781 C 28.984375 10.964844 29.3125 11.351562 29.53125 11.515625 C 29.75 11.660156 30.699219 12.628906 31.339844 12.902344 C 31.960938 13.175781 33.21875 14.070312 33.382812 14.03125 C 33.546875 13.996094 35.410156 12.5 36.027344 11.789062 C 36.648438 11.058594 37.070312 10.472656 37.652344 9.980469 C 38.21875 9.488281 38.199219 9.125 38.695312 9.015625 C 39.1875 8.90625 40.007812 9.015625 40.71875 8.210938 C 41.449219 7.40625 43.257812 5.453125 43.257812 5.453125 C 43.257812 5.453125 45.007812 3.8125 45.191406 3.648438 C 45.390625 3.484375 46.011719 3.390625 46.632812 3.941406 C 47.253906 4.507812 48.148438 5.710938 48.53125 6.3125 C 48.914062 6.914062 49.167969 7.261719 49.480469 7.371094 C 49.789062 7.460938 50.429688 7.699219 50.59375 8.738281 C 50.757812 9.796875 51.324219 11.023438 51.6875 11.585938 C 52.070312 12.171875 53.550781 13.960938 53.859375 14.253906 C 54.1875 14.542969 54.207031 14.761719 54.515625 14.417969 C 54.808594 14.050781 55.539062 13.703125 55.921875 13.449219 C 56.289062 13.195312 57.546875 12.664062 58.277344 13.46875 C 59.027344 14.289062 61.105469 16.824219 61.761719 17.773438 C 62.402344 18.722656 63.84375 20.601562 64.246094 20.96875 C 64.664062 21.316406 64.9375 21.550781 64.9375 21.789062 C 64.9375 22.046875 64.429688 21.496094 64.117188 21.132812 C 63.808594 20.75 63.550781 20.546875 63.257812 20.292969 C 62.949219 20.054688 62 18.652344 61.726562 18.304688 C 61.472656 17.976562 59.9375 16.003906 59.589844 15.621094 C 59.246094 15.21875 57.875 13.757812 57.566406 13.832031 C 57.253906 13.90625 56.542969 15.019531 56.25 15.308594 C 55.976562 15.601562 53.511719 17.464844 53.203125 17.648438 C 52.894531 17.8125 52.398438 17.8125 52.144531 17.992188 C 51.871094 18.175781 51.488281 18.15625 51.050781 18.175781 C 50.613281 18.210938 50.246094 18.449219 50.007812 18.320312 C 49.789062 18.195312 50.738281 17.484375 51.121094 17.300781 C 51.488281 17.117188 52.636719 16.1875 52.875 15.984375 C 53.113281 15.804688 53.898438 15.128906 53.804688 14.78125 C 53.714844 14.417969 51.851562 12.5 51.414062 11.84375 C 50.976562 11.203125 50.339844 9.03125 50.027344 8.484375 C 49.699219 7.9375 48.839844 7.460938 48.550781 7.023438 C 48.238281 6.585938 47.015625 5.089844 46.597656 4.816406 C 46.175781 4.542969 45.847656 4.5625 45.847656 4.5625 C 45.847656 4.5625 45.882812 5.710938 45.355469 6.824219 C 44.808594 7.9375 43.492188 10.347656 43.3125 10.964844 C 43.109375 11.570312 42.875 12.300781 42.324219 12.664062 C 41.796875 13.046875 41.503906 13.339844 41.320312 13.503906 C 41.140625 13.667969 40.480469 14.160156 40.316406 14.105469 C 40.152344 14.050781 40.589844 13.101562 40.589844 12.589844 C 40.609375 12.0625 40.628906 11.859375 40.554688 11.75 C 40.480469 11.640625 40.007812 11.386719 39.824219 11.515625 C 39.644531 11.625 38.675781 13.066406 38.273438 13.429688 C 37.871094 13.796875 37.761719 13.742188 37.691406 13.613281 C 37.617188 13.484375 37.140625 12.480469 37.085938 12.589844 C 37.015625 12.71875 36.210938 15.21875 35.753906 15.492188 C 35.300781 15.785156 34.003906 16.898438 33.582031 16.988281 C 33.164062 17.097656 32.507812 17.246094 32.507812 17.464844 C 32.507812 17.683594 32.214844 19.726562 31.59375 20.695312 C 30.972656 21.660156 31.175781 21.882812 30.84375 22.101562 C 30.515625 22.320312 28.109375 23.46875 27.214844 24.199219 C 26.320312 24.910156 25.953125 24.726562 25.570312 25.113281 C 25.167969 25.476562 24.675781 26.113281 24.621094 25.714844 C 24.566406 25.3125 26.226562 23.597656 26.757812 23.105469 C 27.285156 22.609375 29.183594 20.730469 29.550781 20.21875 C 29.898438 19.691406 31.320312 18.085938 31.394531 17.191406 C 31.464844 16.3125 31.464844 15.730469 31.136719 15.238281 C 30.789062 14.746094 30.0625 13.339844 29.988281 13.210938 C 29.914062 13.066406 29.730469 12.917969 29.640625 12.792969 C 29.566406 12.644531 29.3125 12.261719 29.113281 12.136719 C 28.894531 12.007812 28.4375 11.1875 28.234375 11.296875 C 28.015625 11.421875 27.414062 12.246094 27.066406 12.5 C 26.738281 12.773438 26.59375 12.917969 26.519531 13.285156 C 26.445312 13.667969 25.625 14.816406 25.699219 14.910156 C 25.789062 15 26.390625 14.925781 26.757812 14.855469 C 27.121094 14.78125 27.230469 15.199219 26.777344 15.621094 C 26.320312 16.058594 26.117188 15.96875 26.027344 17.0625 C 25.9375 18.140625 26.191406 18.667969 25.042969 19.378906 C 23.890625 20.09375 22.925781 20.328125 21.71875 21.515625 C 20.535156 22.703125 20.023438 23.175781 19.859375 23.378906 C 19.675781 23.578125 19.382812 23.46875 19.457031 23.03125 C 19.511719 22.574219 19.382812 22.046875 19.382812 22.046875 C 19.382812 22.046875 18.214844 22.320312 17.648438 22.664062 C 17.085938 23.011719 16.097656 23.414062 15.550781 23.761719 C 14.984375 24.109375 14.492188 24.5625 14.402344 24.5625 C 14.308594 24.5625 14.457031 24.035156 15.058594 23.667969 C 15.679688 23.304688 16.976562 22.335938 17.320312 22.007812 C 17.667969 21.679688 19.382812 20.878906 19.546875 20.675781 C 19.710938 20.476562 20.152344 19.800781 20.042969 19.617188 C 19.929688 19.433594 18.910156 19.507812 18.707031 19.324219 C 18.488281 19.144531 18.234375 18.285156 18.234375 18.285156 C 18.234375 18.285156 16.828125 18.265625 16.664062 18.304688 C 16.5 18.339844 16.480469 18.46875 16.390625 18.851562 C 16.28125 19.214844 16.097656 20.675781 15.585938 20.769531 C 15.058594 20.859375 13.855469 20.769531 13.269531 21.152344 C 12.703125 21.535156 12.011719 22.027344 11.828125 22.171875 C 11.628906 22.320312 11.261719 22.609375 11.117188 22.757812 C 10.988281 22.902344 10.625 23.214844 10.441406 23.324219 C 10.238281 23.449219 10.058594 23.175781 10.292969 22.996094 C 10.515625 22.8125 11.007812 22.464844 11.007812 22.464844 Z M 11.007812 22.464844 " fill-opacity="1" fill-rule="evenodd"/></g><g fill="#000000" fill-opacity="1"><g transform="translate(0.15338, 38.226285)"><g><path d="M 2.28125 -10.609375 L 4.953125 -10.609375 L 6.921875 0 L 4.765625 0 L 4.40625 -2.234375 L 2.859375 -2.234375 L 2.484375 0 L 0.28125 0 Z M 4.1875 -3.640625 L 3.625 -7.78125 L 3.0625 -3.640625 Z M 4.1875 -3.640625 "/></g></g></g><g fill="#000000" fill-opacity="1"><g transform="translate(7.365109, 38.226285)"><g><path d="M 0.78125 -10.609375 L 2.4375 -10.609375 L 4.609375 -5.5 L 4.609375 -10.609375 L 6.546875 -10.609375 L 6.546875 0 L 4.96875 0 L 2.78125 -5.5 L 2.78125 0 L 0.78125 0 Z M 0.78125 -10.609375 "/></g></g></g><g fill="#000000" fill-opacity="1"><g transform="translate(14.707717, 38.226285)"><g><path d="M 0.78125 -10.609375 L 3.46875 -10.609375 C 4.382812 -10.609375 5.097656 -10.492188 5.609375 -10.265625 C 6.128906 -10.035156 6.492188 -9.675781 6.703125 -9.1875 C 6.921875 -8.707031 7.03125 -8.0625 7.03125 -7.25 L 7.03125 -3.40625 C 7.03125 -2.582031 6.921875 -1.925781 6.703125 -1.4375 C 6.492188 -0.945312 6.132812 -0.582031 5.625 -0.34375 C 5.113281 -0.113281 4.40625 0 3.5 0 L 0.78125 0 Z M 3.5 -1.625 C 3.832031 -1.625 4.078125 -1.671875 4.234375 -1.765625 C 4.398438 -1.867188 4.503906 -2.015625 4.546875 -2.203125 C 4.597656 -2.390625 4.625 -2.664062 4.625 -3.03125 L 4.625 -7.65625 C 4.625 -8 4.597656 -8.257812 4.546875 -8.4375 C 4.503906 -8.613281 4.398438 -8.742188 4.234375 -8.828125 C 4.078125 -8.921875 3.828125 -8.96875 3.484375 -8.96875 L 3.125 -8.96875 L 3.125 -1.625 Z M 3.5 -1.625 "/></g></g></g><g fill="#000000" fill-opacity="1"><g transform="translate(22.377536, 38.226285)"><g><path d="M 0.78125 -10.609375 L 5.546875 -10.609375 L 5.546875 -9.015625 L 3.125 -9.015625 L 3.125 -6.375 L 4.96875 -6.375 L 4.96875 -4.75 L 3.125 -4.75 L 3.125 -1.578125 L 5.578125 -1.578125 L 5.578125 0 L 0.78125 0 Z M 0.78125 -10.609375 "/></g></g></g><g fill="#000000" fill-opacity="1"><g transform="translate(28.228076, 38.226285)"><g><path d="M 3.59375 0.15625 C 2.582031 0.15625 1.832031 -0.109375 1.34375 -0.640625 C 0.851562 -1.179688 0.585938 -2.035156 0.546875 -3.203125 L 2.546875 -3.515625 C 2.554688 -2.835938 2.640625 -2.351562 2.796875 -2.0625 C 2.953125 -1.769531 3.179688 -1.625 3.484375 -1.625 C 3.878906 -1.625 4.078125 -1.878906 4.078125 -2.390625 C 4.078125 -2.804688 3.984375 -3.160156 3.796875 -3.453125 C 3.609375 -3.753906 3.3125 -4.070312 2.90625 -4.40625 L 1.984375 -5.21875 C 1.535156 -5.59375 1.1875 -5.992188 0.9375 -6.421875 C 0.6875 -6.859375 0.5625 -7.375 0.5625 -7.96875 C 0.5625 -8.863281 0.820312 -9.550781 1.34375 -10.03125 C 1.875 -10.507812 2.601562 -10.75 3.53125 -10.75 C 4.539062 -10.75 5.222656 -10.457031 5.578125 -9.875 C 5.941406 -9.289062 6.140625 -8.578125 6.171875 -7.734375 L 4.15625 -7.484375 C 4.132812 -8.035156 4.082031 -8.429688 4 -8.671875 C 3.914062 -8.910156 3.734375 -9.03125 3.453125 -9.03125 C 3.253906 -9.03125 3.097656 -8.945312 2.984375 -8.78125 C 2.878906 -8.613281 2.828125 -8.421875 2.828125 -8.203125 C 2.828125 -7.847656 2.90625 -7.546875 3.0625 -7.296875 C 3.226562 -7.054688 3.488281 -6.78125 3.84375 -6.46875 L 4.734375 -5.703125 C 5.253906 -5.253906 5.65625 -4.78125 5.9375 -4.28125 C 6.226562 -3.78125 6.375 -3.191406 6.375 -2.515625 C 6.375 -2.015625 6.257812 -1.5625 6.03125 -1.15625 C 5.800781 -0.75 5.472656 -0.425781 5.046875 -0.1875 C 4.628906 0.0390625 4.144531 0.15625 3.59375 0.15625 Z M 3.59375 0.15625 "/></g></g></g><g fill="#000000" fill-opacity="1"><g transform="translate(34.955536, 38.226285)"><g/></g></g><g fill="#000000" fill-opacity="1"><g transform="translate(38.306177, 38.226285)"><g><path d="M 0.28125 -10.609375 L 2.296875 -10.609375 L 3.4375 -3.40625 L 4.484375 -10.609375 L 6.609375 -10.609375 L 4.671875 0 L 2.203125 0 Z M 0.28125 -10.609375 "/></g></g></g><g fill="#000000" fill-opacity="1"><g transform="translate(45.190694, 38.226285)"><g><path d="M 0.796875 -10.609375 L 3.140625 -10.609375 L 3.140625 0 L 0.796875 0 Z M 0.796875 -10.609375 "/></g></g></g><g fill="#000000" fill-opacity="1"><g transform="translate(49.13032, 38.226285)"><g><path d="M 3.59375 0.15625 C 2.582031 0.15625 1.832031 -0.109375 1.34375 -0.640625 C 0.851562 -1.179688 0.585938 -2.035156 0.546875 -3.203125 L 2.546875 -3.515625 C 2.554688 -2.835938 2.640625 -2.351562 2.796875 -2.0625 C 2.953125 -1.769531 3.179688 -1.625 3.484375 -1.625 C 3.878906 -1.625 4.078125 -1.878906 4.078125 -2.390625 C 4.078125 -2.804688 3.984375 -3.160156 3.796875 -3.453125 C 3.609375 -3.753906 3.3125 -4.070312 2.90625 -4.40625 L 1.984375 -5.21875 C 1.535156 -5.59375 1.1875 -5.992188 0.9375 -6.421875 C 0.6875 -6.859375 0.5625 -7.375 0.5625 -7.96875 C 0.5625 -8.863281 0.820312 -9.550781 1.34375 -10.03125 C 1.875 -10.507812 2.601562 -10.75 3.53125 -10.75 C 4.539062 -10.75 5.222656 -10.457031 5.578125 -9.875 C 5.941406 -9.289062 6.140625 -8.578125 6.171875 -7.734375 L 4.15625 -7.484375 C 4.132812 -8.035156 4.082031 -8.429688 4 -8.671875 C 3.914062 -8.910156 3.734375 -9.03125 3.453125 -9.03125 C 3.253906 -9.03125 3.097656 -8.945312 2.984375 -8.78125 C 2.878906 -8.613281 2.828125 -8.421875 2.828125 -8.203125 C 2.828125 -7.847656 2.90625 -7.546875 3.0625 -7.296875 C 3.226562 -7.054688 3.488281 -6.78125 3.84375 -6.46875 L 4.734375 -5.703125 C 5.253906 -5.253906 5.65625 -4.78125 5.9375 -4.28125 C 6.226562 -3.78125 6.375 -3.191406 6.375 -2.515625 C 6.375 -2.015625 6.257812 -1.5625 6.03125 -1.15625 C 5.800781 -0.75 5.472656 -0.425781 5.046875 -0.1875 C 4.628906 0.0390625 4.144531 0.15625 3.59375 0.15625 Z M 3.59375 0.15625 "/></g></g></g><g fill="#000000" fill-opacity="1"><g transform="translate(55.85778, 38.226285)"><g><path d="M 0.796875 -10.609375 L 3.140625 -10.609375 L 3.140625 0 L 0.796875 0 Z M 0.796875 -10.609375 "/></g></g></g><g fill="#000000" fill-opacity="1"><g transform="translate(59.797406, 38.226285)"><g><path d="M 3.828125 0.15625 C 2.679688 0.15625 1.863281 -0.132812 1.375 -0.71875 C 0.882812 -1.3125 0.640625 -2.1875 0.640625 -3.34375 L 0.640625 -7.28125 C 0.640625 -8.4375 0.882812 -9.300781 1.375 -9.875 C 1.863281 -10.457031 2.679688 -10.75 3.828125 -10.75 C 4.972656 -10.75 5.789062 -10.457031 6.28125 -9.875 C 6.78125 -9.289062 7.03125 -8.425781 7.03125 -7.28125 L 7.03125 -3.34375 C 7.03125 -2.1875 6.78125 -1.3125 6.28125 -0.71875 C 5.789062 -0.132812 4.972656 0.15625 3.828125 0.15625 Z M 3.828125 -1.5 C 4.160156 -1.5 4.378906 -1.609375 4.484375 -1.828125 C 4.585938 -2.054688 4.640625 -2.363281 4.640625 -2.75 L 4.640625 -7.859375 C 4.640625 -8.253906 4.585938 -8.554688 4.484375 -8.765625 C 4.378906 -8.984375 4.160156 -9.09375 3.828125 -9.09375 C 3.515625 -9.09375 3.300781 -8.984375 3.1875 -8.765625 C 3.082031 -8.546875 3.03125 -8.242188 3.03125 -7.859375 L 3.03125 -2.75 C 3.03125 -2.363281 3.078125 -2.054688 3.171875 -1.828125 C 3.273438 -1.609375 3.492188 -1.5 3.828125 -1.5 Z M 3.96875 -14.0625 L 6.140625 -14.0625 L 4.484375 -11.4375 L 3.140625 -11.4375 Z M 3.96875 -14.0625 "/></g></g></g><g fill="#000000" fill-opacity="1"><g transform="translate(67.467225, 38.226285)"><g><path d="M 0.78125 -10.609375 L 2.4375 -10.609375 L 4.609375 -5.5 L 4.609375 -10.609375 L 6.546875 -10.609375 L 6.546875 0 L 4.96875 0 L 2.78125 -5.5 L 2.78125 0 L 0.78125 0 Z M 0.78125 -10.609375 "/></g></g></g></svg>